<?xml version="1.0" encoding="UTF-8" standalone="no"?>
<svg width="512" height="512" viewBox="0 0 512 512" xmlns="http://www.w3.org/2000/svg">
  <!-- Background Circle -->
  <circle cx="256" cy="256" r="256" fill="#4A90E2"/>
  
  <!-- Education Book -->
  <rect x="180" y="200" width="152" height="120" rx="8" fill="#FFFFFF" stroke="#2C3E50" stroke-width="4"/>
  <rect x="190" y="210" width="132" height="100" rx="4" fill="#F8F9FA"/>
  
  <!-- Book Pages -->
  <line x1="220" y1="230" x2="300" y2="230" stroke="#BDC3C7" stroke-width="2"/>
  <line x1="220" y1="250" x2="290" y2="250" stroke="#BDC3C7" stroke-width="2"/>
  <line x1="220" y1="270" x2="295" y2="270" stroke="#BDC3C7" stroke-width="2"/>
  <line x1="220" y1="290" x2="285" y2="290" stroke="#BDC3C7" stroke-width="2"/>
  
  <!-- Graduation Cap -->
  <polygon points="256,140 200,160 312,160" fill="#2C3E50"/>
  <rect x="240" y="140" width="32" height="20" fill="#2C3E50"/>
  <circle cx="256" cy="130" r="8" fill="#E74C3C"/>
  
  <!-- Academic Elements -->
  <circle cx="150" cy="180" r="25" fill="#27AE60" opacity="0.8"/>
  <text x="150" y="188" text-anchor="middle" fill="white" font-family="Arial" font-size="20" font-weight="bold">A+</text>
  
  <circle cx="362" cy="180" r="25" fill="#F39C12" opacity="0.8"/>
  <text x="362" y="188" text-anchor="middle" fill="white" font-family="Arial" font-size="24">📚</text>
  
  <!-- School Building Silhouette -->
  <rect x="120" y="350" width="272" height="80" fill="#34495E" opacity="0.6"/>
  <polygon points="120,350 256,300 392,350" fill="#2C3E50" opacity="0.6"/>
  
  <!-- Stars for Excellence -->
  <polygon points="100,100 105,115 120,115 108,125 113,140 100,130 87,140 92,125 80,115 95,115" fill="#F1C40F"/>
  <polygon points="412,100 417,115 432,115 420,125 425,140 412,130 399,140 404,125 392,115 407,115" fill="#F1C40F"/>
</svg>